<svg width="453" height="111" viewBox="0 0 453 111" fill="none" xmlns="http://www.w3.org/2000/svg">
<path d="M46.5 55C56.9 61.4 59.6667 71.6667 59.5 76H44.5M46.5 55C46.5 55 49.5 35 48 27C46.5 19 32 5 32 5C32 5 17 19.5 16 27C15 34.5 17.5 55 17.5 55M46.5 55L44.5 76M17.5 55C13 57.1667 4 64.4 4 76H19.5M17.5 55L19.5 76M19.5 76H44.5" stroke="white" stroke-width="7"/>
<path d="M32 110.5L40.6603 85H23.3397L32 110.5Z" fill="white"/>
<path d="M37 26.5C37 29.2614 34.7614 31.5 32 31.5C29.2386 31.5 27 29.2614 27 26.5C27 23.7386 29.2386 21.5 32 21.5C34.7614 21.5 37 23.7386 37 26.5Z" fill="white"/>
<path d="M92.525 26.605V79H81.675V26.605H92.525ZM122.434 56.495C122.434 55.6317 122.317 54.7917 122.084 53.975C121.874 53.1583 121.512 52.435 120.999 51.805C120.509 51.1517 119.855 50.6267 119.039 50.23C118.222 49.8333 117.23 49.635 116.064 49.635C114.01 49.635 112.4 50.23 111.234 51.42C110.067 52.5867 109.297 54.2783 108.924 56.495H122.434ZM108.784 62.795C109.134 65.8283 110.055 68.0333 111.549 69.41C113.042 70.7633 114.967 71.44 117.324 71.44C118.584 71.44 119.669 71.2883 120.579 70.985C121.489 70.6817 122.294 70.3433 122.994 69.97C123.717 69.5967 124.37 69.2583 124.954 68.955C125.56 68.6517 126.19 68.5 126.844 68.5C127.707 68.5 128.36 68.815 128.804 69.445L131.954 73.33C130.834 74.6133 129.62 75.6633 128.314 76.48C127.03 77.2733 125.7 77.9033 124.324 78.37C122.97 78.8133 121.605 79.1167 120.229 79.28C118.875 79.4667 117.58 79.56 116.344 79.56C113.8 79.56 111.409 79.1517 109.169 78.335C106.952 77.495 105.004 76.2583 103.324 74.625C101.667 72.9917 100.349 70.9617 99.3686 68.535C98.4119 66.1083 97.9336 63.285 97.9336 60.065C97.9336 57.6383 98.3419 55.34 99.1586 53.17C99.9986 51 101.189 49.0983 102.729 47.465C104.292 45.8317 106.17 44.5367 108.364 43.58C110.58 42.6233 113.077 42.145 115.854 42.145C118.257 42.145 120.45 42.5183 122.434 43.265C124.44 44.0117 126.155 45.0967 127.579 46.52C129.025 47.9433 130.145 49.6933 130.939 51.77C131.755 53.8233 132.164 56.1567 132.164 58.77C132.164 59.5867 132.129 60.2517 132.059 60.765C131.989 61.2783 131.86 61.6867 131.674 61.99C131.487 62.2933 131.23 62.5033 130.904 62.62C130.6 62.7367 130.204 62.795 129.714 62.795H108.784ZM150.099 79.56C148.373 79.56 146.844 79.315 145.514 78.825C144.208 78.3117 143.099 77.6 142.189 76.69C141.303 75.7567 140.626 74.6367 140.159 73.33C139.693 72.0233 139.459 70.565 139.459 68.955V50.195H136.379C135.819 50.195 135.341 50.02 134.944 49.67C134.548 49.2967 134.349 48.76 134.349 48.06V43.825L140.124 42.705L142.259 33.85C142.539 32.73 143.333 32.17 144.639 32.17H150.309V42.775H159.304V50.195H150.309V68.22C150.309 69.06 150.508 69.76 150.904 70.32C151.324 70.8567 151.919 71.125 152.689 71.125C153.086 71.125 153.413 71.09 153.669 71.02C153.949 70.9267 154.183 70.8333 154.369 70.74C154.579 70.6233 154.766 70.53 154.929 70.46C155.116 70.3667 155.326 70.32 155.559 70.32C155.886 70.32 156.143 70.4017 156.329 70.565C156.539 70.705 156.749 70.9383 156.959 71.265L160.249 76.41C158.849 77.46 157.274 78.2533 155.524 78.79C153.774 79.3033 151.966 79.56 150.099 79.56ZM186.345 60.52C186.345 63.3667 185.983 65.9567 185.26 68.29C184.56 70.6233 183.486 72.63 182.04 74.31C180.616 75.9667 178.82 77.2617 176.65 78.195C174.48 79.105 171.925 79.56 168.985 79.56C167.655 79.56 166.336 79.49 165.03 79.35C163.746 79.21 162.405 78.9767 161.005 78.65L161.635 71.755C161.705 71.1483 161.95 70.6583 162.37 70.285C162.79 69.9117 163.385 69.725 164.155 69.725C164.551 69.725 165.041 69.795 165.625 69.935C166.208 70.0517 166.908 70.11 167.725 70.11C168.868 70.11 169.86 69.9583 170.7 69.655C171.563 69.3283 172.275 68.8033 172.835 68.08C173.395 67.3333 173.815 66.365 174.095 65.175C174.375 63.985 174.515 62.515 174.515 60.765V28.005H186.345V60.52ZM210.173 42.145C212.926 42.145 215.434 42.5767 217.698 43.44C219.961 44.3033 221.898 45.54 223.508 47.15C225.141 48.76 226.401 50.72 227.288 53.03C228.198 55.3167 228.653 57.895 228.653 60.765C228.653 63.6583 228.198 66.2717 227.288 68.605C226.401 70.915 225.141 72.8867 223.508 74.52C221.898 76.13 219.961 77.3783 217.698 78.265C215.434 79.1283 212.926 79.56 210.173 79.56C207.396 79.56 204.864 79.1283 202.578 78.265C200.314 77.3783 198.354 76.13 196.698 74.52C195.064 72.8867 193.793 70.915 192.883 68.605C191.996 66.2717 191.553 63.6583 191.553 60.765C191.553 57.895 191.996 55.3167 192.883 53.03C193.793 50.72 195.064 48.76 196.698 47.15C198.354 45.54 200.314 44.3033 202.578 43.44C204.864 42.5767 207.396 42.145 210.173 42.145ZM210.173 71.51C212.669 71.51 214.501 70.635 215.668 68.885C216.858 67.1117 217.453 64.4283 217.453 60.835C217.453 57.2417 216.858 54.57 215.668 52.82C214.501 51.07 212.669 50.195 210.173 50.195C207.606 50.195 205.728 51.07 204.538 52.82C203.348 54.57 202.753 57.2417 202.753 60.835C202.753 64.4283 203.348 67.1117 204.538 68.885C205.728 70.635 207.606 71.51 210.173 71.51ZM244.126 46.625C244.826 45.9717 245.55 45.365 246.296 44.805C247.043 44.245 247.836 43.7783 248.676 43.405C249.54 43.0083 250.461 42.705 251.441 42.495C252.445 42.2617 253.53 42.145 254.696 42.145C256.68 42.145 258.43 42.495 259.946 43.195C261.486 43.8717 262.781 44.8283 263.831 46.065C264.881 47.2783 265.675 48.7367 266.211 50.44C266.748 52.12 267.016 53.9517 267.016 55.935V79H256.166V55.935C256.166 54.1617 255.758 52.785 254.941 51.805C254.125 50.8017 252.923 50.3 251.336 50.3C250.146 50.3 249.026 50.5567 247.976 51.07C246.95 51.56 245.946 52.2367 244.966 53.1V79H234.116V42.705H240.836C242.19 42.705 243.076 43.3117 243.496 44.525L244.126 46.625ZM292.763 64.23C290.593 64.3233 288.808 64.51 287.408 64.79C286.008 65.07 284.9 65.42 284.083 65.84C283.267 66.26 282.695 66.7383 282.368 67.275C282.065 67.8117 281.913 68.395 281.913 69.025C281.913 70.2617 282.252 71.1367 282.928 71.65C283.605 72.14 284.597 72.385 285.903 72.385C287.303 72.385 288.528 72.14 289.578 71.65C290.628 71.16 291.69 70.3667 292.763 69.27V64.23ZM273.233 47.745C275.427 45.8083 277.853 44.3733 280.513 43.44C283.197 42.4833 286.067 42.005 289.123 42.005C291.317 42.005 293.288 42.3667 295.038 43.09C296.812 43.79 298.305 44.7817 299.518 46.065C300.755 47.325 301.7 48.83 302.353 50.58C303.007 52.33 303.333 54.2433 303.333 56.32V79H298.363C297.337 79 296.555 78.86 296.018 78.58C295.505 78.3 295.073 77.7167 294.723 76.83L293.953 74.835C293.043 75.605 292.168 76.2817 291.328 76.865C290.488 77.4483 289.613 77.95 288.703 78.37C287.817 78.7667 286.86 79.0583 285.833 79.245C284.83 79.455 283.71 79.56 282.473 79.56C280.817 79.56 279.312 79.35 277.958 78.93C276.605 78.4867 275.45 77.845 274.493 77.005C273.56 76.165 272.837 75.1267 272.323 73.89C271.81 72.63 271.553 71.1833 271.553 69.55C271.553 68.2433 271.88 66.925 272.533 65.595C273.187 64.2417 274.318 63.0167 275.928 61.92C277.538 60.8 279.708 59.8667 282.438 59.12C285.168 58.3733 288.61 57.9533 292.763 57.86V56.32C292.763 54.1967 292.32 52.6683 291.433 51.735C290.57 50.7783 289.333 50.3 287.723 50.3C286.44 50.3 285.39 50.44 284.573 50.72C283.757 51 283.022 51.315 282.368 51.665C281.738 52.015 281.12 52.33 280.513 52.61C279.907 52.89 279.183 53.03 278.343 53.03C277.597 53.03 276.967 52.8433 276.453 52.47C275.94 52.0967 275.52 51.6533 275.193 51.14L273.233 47.745ZM322.707 79.56C320.98 79.56 319.452 79.315 318.122 78.825C316.815 78.3117 315.707 77.6 314.797 76.69C313.91 75.7567 313.234 74.6367 312.767 73.33C312.3 72.0233 312.067 70.565 312.067 68.955V50.195H308.987C308.427 50.195 307.949 50.02 307.552 49.67C307.155 49.2967 306.957 48.76 306.957 48.06V43.825L312.732 42.705L314.867 33.85C315.147 32.73 315.94 32.17 317.247 32.17H322.917V42.775H331.912V50.195H322.917V68.22C322.917 69.06 323.115 69.76 323.512 70.32C323.932 70.8567 324.527 71.125 325.297 71.125C325.694 71.125 326.02 71.09 326.277 71.02C326.557 70.9267 326.79 70.8333 326.977 70.74C327.187 70.6233 327.374 70.53 327.537 70.46C327.724 70.3667 327.934 70.32 328.167 70.32C328.494 70.32 328.75 70.4017 328.937 70.565C329.147 70.705 329.357 70.9383 329.567 71.265L332.857 76.41C331.457 77.46 329.882 78.2533 328.132 78.79C326.382 79.3033 324.574 79.56 322.707 79.56ZM347.437 45.89C348.744 44.77 350.155 43.8717 351.672 43.195C353.212 42.495 355.044 42.145 357.167 42.145C359.15 42.145 360.9 42.495 362.417 43.195C363.957 43.8717 365.252 44.8283 366.302 46.065C367.352 47.2783 368.145 48.7367 368.682 50.44C369.219 52.12 369.487 53.9517 369.487 55.935V79H358.637V55.935C358.637 54.1617 358.229 52.785 357.412 51.805C356.595 50.8017 355.394 50.3 353.807 50.3C352.617 50.3 351.497 50.5567 350.447 51.07C349.42 51.56 348.417 52.2367 347.437 53.1V79H336.587V26.605H347.437V45.89ZM395.234 64.23C393.064 64.3233 391.279 64.51 389.879 64.79C388.479 65.07 387.371 65.42 386.554 65.84C385.737 66.26 385.166 66.7383 384.839 67.275C384.536 67.8117 384.384 68.395 384.384 69.025C384.384 70.2617 384.722 71.1367 385.399 71.65C386.076 72.14 387.067 72.385 388.374 72.385C389.774 72.385 390.999 72.14 392.049 71.65C393.099 71.16 394.161 70.3667 395.234 69.27V64.23ZM375.704 47.745C377.897 45.8083 380.324 44.3733 382.984 43.44C385.667 42.4833 388.537 42.005 391.594 42.005C393.787 42.005 395.759 42.3667 397.509 43.09C399.282 43.79 400.776 44.7817 401.989 46.065C403.226 47.325 404.171 48.83 404.824 50.58C405.477 52.33 405.804 54.2433 405.804 56.32V79H400.834C399.807 79 399.026 78.86 398.489 78.58C397.976 78.3 397.544 77.7167 397.194 76.83L396.424 74.835C395.514 75.605 394.639 76.2817 393.799 76.865C392.959 77.4483 392.084 77.95 391.174 78.37C390.287 78.7667 389.331 79.0583 388.304 79.245C387.301 79.455 386.181 79.56 384.944 79.56C383.287 79.56 381.782 79.35 380.429 78.93C379.076 78.4867 377.921 77.845 376.964 77.005C376.031 76.165 375.307 75.1267 374.794 73.89C374.281 72.63 374.024 71.1833 374.024 69.55C374.024 68.2433 374.351 66.925 375.004 65.595C375.657 64.2417 376.789 63.0167 378.399 61.92C380.009 60.8 382.179 59.8667 384.909 59.12C387.639 58.3733 391.081 57.9533 395.234 57.86V56.32C395.234 54.1967 394.791 52.6683 393.904 51.735C393.041 50.7783 391.804 50.3 390.194 50.3C388.911 50.3 387.861 50.44 387.044 50.72C386.227 51 385.492 51.315 384.839 51.665C384.209 52.015 383.591 52.33 382.984 52.61C382.377 52.89 381.654 53.03 380.814 53.03C380.067 53.03 379.437 52.8433 378.924 52.47C378.411 52.0967 377.991 51.6533 377.664 51.14L375.704 47.745ZM422.749 46.625C423.449 45.9717 424.173 45.365 424.919 44.805C425.666 44.245 426.459 43.7783 427.299 43.405C428.163 43.0083 429.084 42.705 430.064 42.495C431.068 42.2617 432.153 42.145 433.319 42.145C435.303 42.145 437.053 42.495 438.569 43.195C440.109 43.8717 441.404 44.8283 442.454 46.065C443.504 47.2783 444.298 48.7367 444.834 50.44C445.371 52.12 445.639 53.9517 445.639 55.935V79H434.789V55.935C434.789 54.1617 434.381 52.785 433.564 51.805C432.748 50.8017 431.546 50.3 429.959 50.3C428.769 50.3 427.649 50.5567 426.599 51.07C425.573 51.56 424.569 52.2367 423.589 53.1V79H412.739V42.705H419.459C420.813 42.705 421.699 43.3117 422.119 44.525L422.749 46.625Z" fill="white"/>
</svg>
