<svg width="458" height="111" viewBox="0 0 458 111" fill="none" xmlns="http://www.w3.org/2000/svg">
<path d="M46.5 55C56.9 61.4 59.6667 71.6667 59.5 76H44.5M46.5 55C46.5 55 49.5 35 48 27C46.5 19 32 5 32 5C32 5 17 19.5 16 27C15 34.5 17.5 55 17.5 55M46.5 55L44.5 76M17.5 55C13 57.1667 4 64.4 4 76H19.5M17.5 55L19.5 76M19.5 76H44.5" stroke="white" stroke-width="7"/>
<path d="M32 110.5L40.6603 85H23.3397L32 110.5Z" fill="white"/>
<path d="M37 26.5C37 29.2614 34.7614 31.5 32 31.5C29.2386 31.5 27 29.2614 27 26.5C27 23.7386 29.2386 21.5 32 21.5C34.7614 21.5 37 23.7386 37 26.5Z" fill="white"/>
<path d="M97.525 26.605V79H86.675V26.605H97.525ZM127.434 56.495C127.434 55.6317 127.317 54.7917 127.084 53.975C126.874 53.1583 126.512 52.435 125.999 51.805C125.509 51.1517 124.855 50.6267 124.039 50.23C123.222 49.8333 122.23 49.635 121.064 49.635C119.01 49.635 117.4 50.23 116.234 51.42C115.067 52.5867 114.297 54.2783 113.924 56.495H127.434ZM113.784 62.795C114.134 65.8283 115.055 68.0333 116.549 69.41C118.042 70.7633 119.967 71.44 122.324 71.44C123.584 71.44 124.669 71.2883 125.579 70.985C126.489 70.6817 127.294 70.3433 127.994 69.97C128.717 69.5967 129.37 69.2583 129.954 68.955C130.56 68.6517 131.19 68.5 131.844 68.5C132.707 68.5 133.36 68.815 133.804 69.445L136.954 73.33C135.834 74.6133 134.62 75.6633 133.314 76.48C132.03 77.2733 130.7 77.9033 129.324 78.37C127.97 78.8133 126.605 79.1167 125.229 79.28C123.875 79.4667 122.58 79.56 121.344 79.56C118.8 79.56 116.409 79.1517 114.169 78.335C111.952 77.495 110.004 76.2583 108.324 74.625C106.667 72.9917 105.349 70.9617 104.369 68.535C103.412 66.1083 102.934 63.285 102.934 60.065C102.934 57.6383 103.342 55.34 104.159 53.17C104.999 51 106.189 49.0983 107.729 47.465C109.292 45.8317 111.17 44.5367 113.364 43.58C115.58 42.6233 118.077 42.145 120.854 42.145C123.257 42.145 125.45 42.5183 127.434 43.265C129.44 44.0117 131.155 45.0967 132.579 46.52C134.025 47.9433 135.145 49.6933 135.939 51.77C136.755 53.8233 137.164 56.1567 137.164 58.77C137.164 59.5867 137.129 60.2517 137.059 60.765C136.989 61.2783 136.86 61.6867 136.674 61.99C136.487 62.2933 136.23 62.5033 135.904 62.62C135.6 62.7367 135.204 62.795 134.714 62.795H113.784ZM155.099 79.56C153.373 79.56 151.844 79.315 150.514 78.825C149.208 78.3117 148.099 77.6 147.189 76.69C146.303 75.7567 145.626 74.6367 145.159 73.33C144.693 72.0233 144.459 70.565 144.459 68.955V50.195H141.379C140.819 50.195 140.341 50.02 139.944 49.67C139.548 49.2967 139.349 48.76 139.349 48.06V43.825L145.124 42.705L147.259 33.85C147.539 32.73 148.333 32.17 149.639 32.17H155.309V42.775H164.304V50.195H155.309V68.22C155.309 69.06 155.508 69.76 155.904 70.32C156.324 70.8567 156.919 71.125 157.689 71.125C158.086 71.125 158.413 71.09 158.669 71.02C158.949 70.9267 159.183 70.8333 159.369 70.74C159.579 70.6233 159.766 70.53 159.929 70.46C160.116 70.3667 160.326 70.32 160.559 70.32C160.886 70.32 161.143 70.4017 161.329 70.565C161.539 70.705 161.749 70.9383 161.959 71.265L165.249 76.41C163.849 77.46 162.274 78.2533 160.524 78.79C158.774 79.3033 156.966 79.56 155.099 79.56ZM191.345 60.52C191.345 63.3667 190.983 65.9567 190.26 68.29C189.56 70.6233 188.486 72.63 187.04 74.31C185.616 75.9667 183.82 77.2617 181.65 78.195C179.48 79.105 176.925 79.56 173.985 79.56C172.655 79.56 171.336 79.49 170.03 79.35C168.746 79.21 167.405 78.9767 166.005 78.65L166.635 71.755C166.705 71.1483 166.95 70.6583 167.37 70.285C167.79 69.9117 168.385 69.725 169.155 69.725C169.551 69.725 170.041 69.795 170.625 69.935C171.208 70.0517 171.908 70.11 172.725 70.11C173.868 70.11 174.86 69.9583 175.7 69.655C176.563 69.3283 177.275 68.8033 177.835 68.08C178.395 67.3333 178.815 66.365 179.095 65.175C179.375 63.985 179.515 62.515 179.515 60.765V28.005H191.345V60.52ZM215.173 42.145C217.926 42.145 220.434 42.5767 222.698 43.44C224.961 44.3033 226.898 45.54 228.508 47.15C230.141 48.76 231.401 50.72 232.288 53.03C233.198 55.3167 233.653 57.895 233.653 60.765C233.653 63.6583 233.198 66.2717 232.288 68.605C231.401 70.915 230.141 72.8867 228.508 74.52C226.898 76.13 224.961 77.3783 222.698 78.265C220.434 79.1283 217.926 79.56 215.173 79.56C212.396 79.56 209.864 79.1283 207.578 78.265C205.314 77.3783 203.354 76.13 201.698 74.52C200.064 72.8867 198.793 70.915 197.883 68.605C196.996 66.2717 196.553 63.6583 196.553 60.765C196.553 57.895 196.996 55.3167 197.883 53.03C198.793 50.72 200.064 48.76 201.698 47.15C203.354 45.54 205.314 44.3033 207.578 43.44C209.864 42.5767 212.396 42.145 215.173 42.145ZM215.173 71.51C217.669 71.51 219.501 70.635 220.668 68.885C221.858 67.1117 222.453 64.4283 222.453 60.835C222.453 57.2417 221.858 54.57 220.668 52.82C219.501 51.07 217.669 50.195 215.173 50.195C212.606 50.195 210.728 51.07 209.538 52.82C208.348 54.57 207.753 57.2417 207.753 60.835C207.753 64.4283 208.348 67.1117 209.538 68.885C210.728 70.635 212.606 71.51 215.173 71.51ZM249.126 46.625C249.826 45.9717 250.55 45.365 251.296 44.805C252.043 44.245 252.836 43.7783 253.676 43.405C254.54 43.0083 255.461 42.705 256.441 42.495C257.445 42.2617 258.53 42.145 259.696 42.145C261.68 42.145 263.43 42.495 264.946 43.195C266.486 43.8717 267.781 44.8283 268.831 46.065C269.881 47.2783 270.675 48.7367 271.211 50.44C271.748 52.12 272.016 53.9517 272.016 55.935V79H261.166V55.935C261.166 54.1617 260.758 52.785 259.941 51.805C259.125 50.8017 257.923 50.3 256.336 50.3C255.146 50.3 254.026 50.5567 252.976 51.07C251.95 51.56 250.946 52.2367 249.966 53.1V79H239.116V42.705H245.836C247.19 42.705 248.076 43.3117 248.496 44.525L249.126 46.625ZM297.763 64.23C295.593 64.3233 293.808 64.51 292.408 64.79C291.008 65.07 289.9 65.42 289.083 65.84C288.267 66.26 287.695 66.7383 287.368 67.275C287.065 67.8117 286.913 68.395 286.913 69.025C286.913 70.2617 287.252 71.1367 287.928 71.65C288.605 72.14 289.597 72.385 290.903 72.385C292.303 72.385 293.528 72.14 294.578 71.65C295.628 71.16 296.69 70.3667 297.763 69.27V64.23ZM278.233 47.745C280.427 45.8083 282.853 44.3733 285.513 43.44C288.197 42.4833 291.067 42.005 294.123 42.005C296.317 42.005 298.288 42.3667 300.038 43.09C301.812 43.79 303.305 44.7817 304.518 46.065C305.755 47.325 306.7 48.83 307.353 50.58C308.007 52.33 308.333 54.2433 308.333 56.32V79H303.363C302.337 79 301.555 78.86 301.018 78.58C300.505 78.3 300.073 77.7167 299.723 76.83L298.953 74.835C298.043 75.605 297.168 76.2817 296.328 76.865C295.488 77.4483 294.613 77.95 293.703 78.37C292.817 78.7667 291.86 79.0583 290.833 79.245C289.83 79.455 288.71 79.56 287.473 79.56C285.817 79.56 284.312 79.35 282.958 78.93C281.605 78.4867 280.45 77.845 279.493 77.005C278.56 76.165 277.837 75.1267 277.323 73.89C276.81 72.63 276.553 71.1833 276.553 69.55C276.553 68.2433 276.88 66.925 277.533 65.595C278.187 64.2417 279.318 63.0167 280.928 61.92C282.538 60.8 284.708 59.8667 287.438 59.12C290.168 58.3733 293.61 57.9533 297.763 57.86V56.32C297.763 54.1967 297.32 52.6683 296.433 51.735C295.57 50.7783 294.333 50.3 292.723 50.3C291.44 50.3 290.39 50.44 289.573 50.72C288.757 51 288.022 51.315 287.368 51.665C286.738 52.015 286.12 52.33 285.513 52.61C284.907 52.89 284.183 53.03 283.343 53.03C282.597 53.03 281.967 52.8433 281.453 52.47C280.94 52.0967 280.52 51.6533 280.193 51.14L278.233 47.745ZM327.707 79.56C325.98 79.56 324.452 79.315 323.122 78.825C321.815 78.3117 320.707 77.6 319.797 76.69C318.91 75.7567 318.234 74.6367 317.767 73.33C317.3 72.0233 317.067 70.565 317.067 68.955V50.195H313.987C313.427 50.195 312.949 50.02 312.552 49.67C312.155 49.2967 311.957 48.76 311.957 48.06V43.825L317.732 42.705L319.867 33.85C320.147 32.73 320.94 32.17 322.247 32.17H327.917V42.775H336.912V50.195H327.917V68.22C327.917 69.06 328.115 69.76 328.512 70.32C328.932 70.8567 329.527 71.125 330.297 71.125C330.694 71.125 331.02 71.09 331.277 71.02C331.557 70.9267 331.79 70.8333 331.977 70.74C332.187 70.6233 332.374 70.53 332.537 70.46C332.724 70.3667 332.934 70.32 333.167 70.32C333.494 70.32 333.75 70.4017 333.937 70.565C334.147 70.705 334.357 70.9383 334.567 71.265L337.857 76.41C336.457 77.46 334.882 78.2533 333.132 78.79C331.382 79.3033 329.574 79.56 327.707 79.56ZM352.437 45.89C353.744 44.77 355.155 43.8717 356.672 43.195C358.212 42.495 360.044 42.145 362.167 42.145C364.15 42.145 365.9 42.495 367.417 43.195C368.957 43.8717 370.252 44.8283 371.302 46.065C372.352 47.2783 373.145 48.7367 373.682 50.44C374.219 52.12 374.487 53.9517 374.487 55.935V79H363.637V55.935C363.637 54.1617 363.229 52.785 362.412 51.805C361.595 50.8017 360.394 50.3 358.807 50.3C357.617 50.3 356.497 50.5567 355.447 51.07C354.42 51.56 353.417 52.2367 352.437 53.1V79H341.587V26.605H352.437V45.89ZM400.234 64.23C398.064 64.3233 396.279 64.51 394.879 64.79C393.479 65.07 392.371 65.42 391.554 65.84C390.737 66.26 390.166 66.7383 389.839 67.275C389.536 67.8117 389.384 68.395 389.384 69.025C389.384 70.2617 389.722 71.1367 390.399 71.65C391.076 72.14 392.067 72.385 393.374 72.385C394.774 72.385 395.999 72.14 397.049 71.65C398.099 71.16 399.161 70.3667 400.234 69.27V64.23ZM380.704 47.745C382.897 45.8083 385.324 44.3733 387.984 43.44C390.667 42.4833 393.537 42.005 396.594 42.005C398.787 42.005 400.759 42.3667 402.509 43.09C404.282 43.79 405.776 44.7817 406.989 46.065C408.226 47.325 409.171 48.83 409.824 50.58C410.477 52.33 410.804 54.2433 410.804 56.32V79H405.834C404.807 79 404.026 78.86 403.489 78.58C402.976 78.3 402.544 77.7167 402.194 76.83L401.424 74.835C400.514 75.605 399.639 76.2817 398.799 76.865C397.959 77.4483 397.084 77.95 396.174 78.37C395.287 78.7667 394.331 79.0583 393.304 79.245C392.301 79.455 391.181 79.56 389.944 79.56C388.287 79.56 386.782 79.35 385.429 78.93C384.076 78.4867 382.921 77.845 381.964 77.005C381.031 76.165 380.307 75.1267 379.794 73.89C379.281 72.63 379.024 71.1833 379.024 69.55C379.024 68.2433 379.351 66.925 380.004 65.595C380.657 64.2417 381.789 63.0167 383.399 61.92C385.009 60.8 387.179 59.8667 389.909 59.12C392.639 58.3733 396.081 57.9533 400.234 57.86V56.32C400.234 54.1967 399.791 52.6683 398.904 51.735C398.041 50.7783 396.804 50.3 395.194 50.3C393.911 50.3 392.861 50.44 392.044 50.72C391.227 51 390.492 51.315 389.839 51.665C389.209 52.015 388.591 52.33 387.984 52.61C387.377 52.89 386.654 53.03 385.814 53.03C385.067 53.03 384.437 52.8433 383.924 52.47C383.411 52.0967 382.991 51.6533 382.664 51.14L380.704 47.745ZM427.749 46.625C428.449 45.9717 429.173 45.365 429.919 44.805C430.666 44.245 431.459 43.7783 432.299 43.405C433.163 43.0083 434.084 42.705 435.064 42.495C436.068 42.2617 437.153 42.145 438.319 42.145C440.303 42.145 442.053 42.495 443.569 43.195C445.109 43.8717 446.404 44.8283 447.454 46.065C448.504 47.2783 449.298 48.7367 449.834 50.44C450.371 52.12 450.639 53.9517 450.639 55.935V79H439.789V55.935C439.789 54.1617 439.381 52.785 438.564 51.805C437.748 50.8017 436.546 50.3 434.959 50.3C433.769 50.3 432.649 50.5567 431.599 51.07C430.573 51.56 429.569 52.2367 428.589 53.1V79H417.739V42.705H424.459C425.813 42.705 426.699 43.3117 427.119 44.525L427.749 46.625Z" fill="white"/>
<path d="M43.0699 54.5801L43.8117 48.7227L47.5932 49.0757L46.9105 59.8719H42.5151L43.0699 54.5801Z" fill="white"/>
<path d="M20.9708 54.6299L20.5285 50.7832L15.3551 51.0523L16.2206 60.7644H21.5478L20.9708 54.6299Z" fill="white"/>
</svg>
