<svg width="601" height="200" viewBox="0 0 601 200" fill="none" xmlns="http://www.w3.org/2000/svg">
<rect width="601" height="200" fill="black"/>
<path d="M126.5 103C136.9 109.4 139.667 119.667 139.5 124H124.5M126.5 103C126.5 103 129.5 83 128 75C126.5 67 112 53 112 53C112 53 97 67.5 96 75C95 82.5 97.5 103 97.5 103M126.5 103L124.5 124M97.5 103C93 105.167 84 112.4 84 124H99.5M97.5 103L99.5 124M99.5 124H124.5" stroke="white" stroke-width="7"/>
<path d="M112 158.5L120.66 133H103.34L112 158.5Z" fill="white"/>
<path d="M117 74.5C117 77.2614 114.761 79.5 112 79.5C109.239 79.5 107 77.2614 107 74.5C107 71.7386 109.239 69.5 112 69.5C114.761 69.5 117 71.7386 117 74.5Z" fill="white"/>
<path d="M177.525 74.605V127H166.675V74.605H177.525ZM207.434 104.495C207.434 103.632 207.317 102.792 207.084 101.975C206.874 101.158 206.512 100.435 205.999 99.805C205.509 99.1517 204.855 98.6267 204.039 98.23C203.222 97.8333 202.23 97.635 201.064 97.635C199.01 97.635 197.4 98.23 196.234 99.42C195.067 100.587 194.297 102.278 193.924 104.495H207.434ZM193.784 110.795C194.134 113.828 195.055 116.033 196.549 117.41C198.042 118.763 199.967 119.44 202.324 119.44C203.584 119.44 204.669 119.288 205.579 118.985C206.489 118.682 207.294 118.343 207.994 117.97C208.717 117.597 209.37 117.258 209.954 116.955C210.56 116.652 211.19 116.5 211.844 116.5C212.707 116.5 213.36 116.815 213.804 117.445L216.954 121.33C215.834 122.613 214.62 123.663 213.314 124.48C212.03 125.273 210.7 125.903 209.324 126.37C207.97 126.813 206.605 127.117 205.229 127.28C203.875 127.467 202.58 127.56 201.344 127.56C198.8 127.56 196.409 127.152 194.169 126.335C191.952 125.495 190.004 124.258 188.324 122.625C186.667 120.992 185.349 118.962 184.369 116.535C183.412 114.108 182.934 111.285 182.934 108.065C182.934 105.638 183.342 103.34 184.159 101.17C184.999 99 186.189 97.0983 187.729 95.465C189.292 93.8317 191.17 92.5367 193.364 91.58C195.58 90.6233 198.077 90.145 200.854 90.145C203.257 90.145 205.45 90.5183 207.434 91.265C209.44 92.0117 211.155 93.0967 212.579 94.52C214.025 95.9433 215.145 97.6933 215.939 99.77C216.755 101.823 217.164 104.157 217.164 106.77C217.164 107.587 217.129 108.252 217.059 108.765C216.989 109.278 216.86 109.687 216.674 109.99C216.487 110.293 216.23 110.503 215.904 110.62C215.6 110.737 215.204 110.795 214.714 110.795H193.784ZM235.099 127.56C233.373 127.56 231.844 127.315 230.514 126.825C229.208 126.312 228.099 125.6 227.189 124.69C226.303 123.757 225.626 122.637 225.159 121.33C224.693 120.023 224.459 118.565 224.459 116.955V98.195H221.379C220.819 98.195 220.341 98.02 219.944 97.67C219.548 97.2967 219.349 96.76 219.349 96.06V91.825L225.124 90.705L227.259 81.85C227.539 80.73 228.333 80.17 229.639 80.17H235.309V90.775H244.304V98.195H235.309V116.22C235.309 117.06 235.508 117.76 235.904 118.32C236.324 118.857 236.919 119.125 237.689 119.125C238.086 119.125 238.413 119.09 238.669 119.02C238.949 118.927 239.183 118.833 239.369 118.74C239.579 118.623 239.766 118.53 239.929 118.46C240.116 118.367 240.326 118.32 240.559 118.32C240.886 118.32 241.143 118.402 241.329 118.565C241.539 118.705 241.749 118.938 241.959 119.265L245.249 124.41C243.849 125.46 242.274 126.253 240.524 126.79C238.774 127.303 236.966 127.56 235.099 127.56ZM271.345 108.52C271.345 111.367 270.983 113.957 270.26 116.29C269.56 118.623 268.486 120.63 267.04 122.31C265.616 123.967 263.82 125.262 261.65 126.195C259.48 127.105 256.925 127.56 253.985 127.56C252.655 127.56 251.336 127.49 250.03 127.35C248.746 127.21 247.405 126.977 246.005 126.65L246.635 119.755C246.705 119.148 246.95 118.658 247.37 118.285C247.79 117.912 248.385 117.725 249.155 117.725C249.551 117.725 250.041 117.795 250.625 117.935C251.208 118.052 251.908 118.11 252.725 118.11C253.868 118.11 254.86 117.958 255.7 117.655C256.563 117.328 257.275 116.803 257.835 116.08C258.395 115.333 258.815 114.365 259.095 113.175C259.375 111.985 259.515 110.515 259.515 108.765V76.005H271.345V108.52ZM295.173 90.145C297.926 90.145 300.434 90.5767 302.698 91.44C304.961 92.3033 306.898 93.54 308.508 95.15C310.141 96.76 311.401 98.72 312.288 101.03C313.198 103.317 313.653 105.895 313.653 108.765C313.653 111.658 313.198 114.272 312.288 116.605C311.401 118.915 310.141 120.887 308.508 122.52C306.898 124.13 304.961 125.378 302.698 126.265C300.434 127.128 297.926 127.56 295.173 127.56C292.396 127.56 289.864 127.128 287.578 126.265C285.314 125.378 283.354 124.13 281.698 122.52C280.064 120.887 278.793 118.915 277.883 116.605C276.996 114.272 276.553 111.658 276.553 108.765C276.553 105.895 276.996 103.317 277.883 101.03C278.793 98.72 280.064 96.76 281.698 95.15C283.354 93.54 285.314 92.3033 287.578 91.44C289.864 90.5767 292.396 90.145 295.173 90.145ZM295.173 119.51C297.669 119.51 299.501 118.635 300.668 116.885C301.858 115.112 302.453 112.428 302.453 108.835C302.453 105.242 301.858 102.57 300.668 100.82C299.501 99.07 297.669 98.195 295.173 98.195C292.606 98.195 290.728 99.07 289.538 100.82C288.348 102.57 287.753 105.242 287.753 108.835C287.753 112.428 288.348 115.112 289.538 116.885C290.728 118.635 292.606 119.51 295.173 119.51ZM329.126 94.625C329.826 93.9717 330.55 93.365 331.296 92.805C332.043 92.245 332.836 91.7783 333.676 91.405C334.54 91.0083 335.461 90.705 336.441 90.495C337.445 90.2617 338.53 90.145 339.696 90.145C341.68 90.145 343.43 90.495 344.946 91.195C346.486 91.8717 347.781 92.8283 348.831 94.065C349.881 95.2783 350.675 96.7367 351.211 98.44C351.748 100.12 352.016 101.952 352.016 103.935V127H341.166V103.935C341.166 102.162 340.758 100.785 339.941 99.805C339.125 98.8017 337.923 98.3 336.336 98.3C335.146 98.3 334.026 98.5567 332.976 99.07C331.95 99.56 330.946 100.237 329.966 101.1V127H319.116V90.705H325.836C327.19 90.705 328.076 91.3117 328.496 92.525L329.126 94.625ZM377.763 112.23C375.593 112.323 373.808 112.51 372.408 112.79C371.008 113.07 369.9 113.42 369.083 113.84C368.267 114.26 367.695 114.738 367.368 115.275C367.065 115.812 366.913 116.395 366.913 117.025C366.913 118.262 367.252 119.137 367.928 119.65C368.605 120.14 369.597 120.385 370.903 120.385C372.303 120.385 373.528 120.14 374.578 119.65C375.628 119.16 376.69 118.367 377.763 117.27V112.23ZM358.233 95.745C360.427 93.8083 362.853 92.3733 365.513 91.44C368.197 90.4833 371.067 90.005 374.123 90.005C376.317 90.005 378.288 90.3667 380.038 91.09C381.812 91.79 383.305 92.7817 384.518 94.065C385.755 95.325 386.7 96.83 387.353 98.58C388.007 100.33 388.333 102.243 388.333 104.32V127H383.363C382.337 127 381.555 126.86 381.018 126.58C380.505 126.3 380.073 125.717 379.723 124.83L378.953 122.835C378.043 123.605 377.168 124.282 376.328 124.865C375.488 125.448 374.613 125.95 373.703 126.37C372.817 126.767 371.86 127.058 370.833 127.245C369.83 127.455 368.71 127.56 367.473 127.56C365.817 127.56 364.312 127.35 362.958 126.93C361.605 126.487 360.45 125.845 359.493 125.005C358.56 124.165 357.837 123.127 357.323 121.89C356.81 120.63 356.553 119.183 356.553 117.55C356.553 116.243 356.88 114.925 357.533 113.595C358.187 112.242 359.318 111.017 360.928 109.92C362.538 108.8 364.708 107.867 367.438 107.12C370.168 106.373 373.61 105.953 377.763 105.86V104.32C377.763 102.197 377.32 100.668 376.433 99.735C375.57 98.7783 374.333 98.3 372.723 98.3C371.44 98.3 370.39 98.44 369.573 98.72C368.757 99 368.022 99.315 367.368 99.665C366.738 100.015 366.12 100.33 365.513 100.61C364.907 100.89 364.183 101.03 363.343 101.03C362.597 101.03 361.967 100.843 361.453 100.47C360.94 100.097 360.52 99.6533 360.193 99.14L358.233 95.745ZM407.707 127.56C405.98 127.56 404.452 127.315 403.122 126.825C401.815 126.312 400.707 125.6 399.797 124.69C398.91 123.757 398.234 122.637 397.767 121.33C397.3 120.023 397.067 118.565 397.067 116.955V98.195H393.987C393.427 98.195 392.949 98.02 392.552 97.67C392.155 97.2967 391.957 96.76 391.957 96.06V91.825L397.732 90.705L399.867 81.85C400.147 80.73 400.94 80.17 402.247 80.17H407.917V90.775H416.912V98.195H407.917V116.22C407.917 117.06 408.115 117.76 408.512 118.32C408.932 118.857 409.527 119.125 410.297 119.125C410.694 119.125 411.02 119.09 411.277 119.02C411.557 118.927 411.79 118.833 411.977 118.74C412.187 118.623 412.374 118.53 412.537 118.46C412.724 118.367 412.934 118.32 413.167 118.32C413.494 118.32 413.75 118.402 413.937 118.565C414.147 118.705 414.357 118.938 414.567 119.265L417.857 124.41C416.457 125.46 414.882 126.253 413.132 126.79C411.382 127.303 409.574 127.56 407.707 127.56ZM432.437 93.89C433.744 92.77 435.155 91.8717 436.672 91.195C438.212 90.495 440.044 90.145 442.167 90.145C444.15 90.145 445.9 90.495 447.417 91.195C448.957 91.8717 450.252 92.8283 451.302 94.065C452.352 95.2783 453.145 96.7367 453.682 98.44C454.219 100.12 454.487 101.952 454.487 103.935V127H443.637V103.935C443.637 102.162 443.229 100.785 442.412 99.805C441.595 98.8017 440.394 98.3 438.807 98.3C437.617 98.3 436.497 98.5567 435.447 99.07C434.42 99.56 433.417 100.237 432.437 101.1V127H421.587V74.605H432.437V93.89ZM480.234 112.23C478.064 112.323 476.279 112.51 474.879 112.79C473.479 113.07 472.371 113.42 471.554 113.84C470.737 114.26 470.166 114.738 469.839 115.275C469.536 115.812 469.384 116.395 469.384 117.025C469.384 118.262 469.722 119.137 470.399 119.65C471.076 120.14 472.067 120.385 473.374 120.385C474.774 120.385 475.999 120.14 477.049 119.65C478.099 119.16 479.161 118.367 480.234 117.27V112.23ZM460.704 95.745C462.897 93.8083 465.324 92.3733 467.984 91.44C470.667 90.4833 473.537 90.005 476.594 90.005C478.787 90.005 480.759 90.3667 482.509 91.09C484.282 91.79 485.776 92.7817 486.989 94.065C488.226 95.325 489.171 96.83 489.824 98.58C490.477 100.33 490.804 102.243 490.804 104.32V127H485.834C484.807 127 484.026 126.86 483.489 126.58C482.976 126.3 482.544 125.717 482.194 124.83L481.424 122.835C480.514 123.605 479.639 124.282 478.799 124.865C477.959 125.448 477.084 125.95 476.174 126.37C475.287 126.767 474.331 127.058 473.304 127.245C472.301 127.455 471.181 127.56 469.944 127.56C468.287 127.56 466.782 127.35 465.429 126.93C464.076 126.487 462.921 125.845 461.964 125.005C461.031 124.165 460.307 123.127 459.794 121.89C459.281 120.63 459.024 119.183 459.024 117.55C459.024 116.243 459.351 114.925 460.004 113.595C460.657 112.242 461.789 111.017 463.399 109.92C465.009 108.8 467.179 107.867 469.909 107.12C472.639 106.373 476.081 105.953 480.234 105.86V104.32C480.234 102.197 479.791 100.668 478.904 99.735C478.041 98.7783 476.804 98.3 475.194 98.3C473.911 98.3 472.861 98.44 472.044 98.72C471.227 99 470.492 99.315 469.839 99.665C469.209 100.015 468.591 100.33 467.984 100.61C467.377 100.89 466.654 101.03 465.814 101.03C465.067 101.03 464.437 100.843 463.924 100.47C463.411 100.097 462.991 99.6533 462.664 99.14L460.704 95.745ZM507.749 94.625C508.449 93.9717 509.173 93.365 509.919 92.805C510.666 92.245 511.459 91.7783 512.299 91.405C513.163 91.0083 514.084 90.705 515.064 90.495C516.068 90.2617 517.153 90.145 518.319 90.145C520.303 90.145 522.053 90.495 523.569 91.195C525.109 91.8717 526.404 92.8283 527.454 94.065C528.504 95.2783 529.298 96.7367 529.834 98.44C530.371 100.12 530.639 101.952 530.639 103.935V127H519.789V103.935C519.789 102.162 519.381 100.785 518.564 99.805C517.748 98.8017 516.546 98.3 514.959 98.3C513.769 98.3 512.649 98.5567 511.599 99.07C510.573 99.56 509.569 100.237 508.589 101.1V127H497.739V90.705H504.459C505.813 90.705 506.699 91.3117 507.119 92.525L507.749 94.625Z" fill="white"/>
<path d="M123.07 102.58L123.812 96.7227L127.593 97.0757L126.91 107.872H122.515L123.07 102.58Z" fill="white"/>
<path d="M100.971 102.63L100.528 98.7832L95.3551 99.0523L96.2206 108.764H101.548L100.971 102.63Z" fill="white"/>
</svg>
