<svg width="64" height="111" viewBox="0 0 64 111" fill="none" xmlns="http://www.w3.org/2000/svg">
<path d="M46.5 55C56.9 61.4 59.6667 71.6667 59.5 76H44.5M46.5 55C46.5 55 49.5 35 48 27C46.5 19 32 5 32 5C32 5 17 19.5 16 27C15 34.5 17.5 55 17.5 55M46.5 55L44.5 76M17.5 55C13 57.1667 4 64.4 4 76H19.5M17.5 55L19.5 76M19.5 76H44.5" stroke="white" stroke-width="7"/>
<path d="M32 110.5L40.6603 85H23.3397L32 110.5Z" fill="white"/>
<path d="M37 26.5C37 29.2614 34.7614 31.5 32 31.5C29.2386 31.5 27 29.2614 27 26.5C27 23.7386 29.2386 21.5 32 21.5C34.7614 21.5 37 23.7386 37 26.5Z" fill="white"/>
</svg>
