<svg width="338" height="111" viewBox="0 0 338 111" fill="none" xmlns="http://www.w3.org/2000/svg">
<path d="M46.5 55C56.9 61.4 59.6667 71.6667 59.5 76H44.5M46.5 55C46.5 55 49.5 35 48 27C46.5 19 32 5 32 5C32 5 17 19.5 16 27C15 34.5 17.5 55 17.5 55M46.5 55L44.5 76M17.5 55C13 57.1667 4 64.4 4 76H19.5M17.5 55L19.5 76M19.5 76H44.5" stroke="white" stroke-width="7"/>
<path d="M32 110.5L40.6603 85H23.3397L32 110.5Z" fill="white"/>
<path d="M37 26.5C37 29.2614 34.7614 31.5 32 31.5C29.2386 31.5 27 29.2614 27 26.5C27 23.7386 29.2386 21.5 32 21.5C34.7614 21.5 37 23.7386 37 26.5Z" fill="white"/>
<path d="M79.444 36.836H84.694V68H79.444V36.836ZM112.669 56.912C112.669 57.276 112.641 57.794 112.585 58.466H94.9866C95.2946 60.118 96.0926 61.434 97.3806 62.414C98.6966 63.366 100.321 63.842 102.253 63.842C104.717 63.842 106.747 63.03 108.343 61.406L111.157 64.64C110.149 65.844 108.875 66.754 107.335 67.37C105.795 67.986 104.059 68.294 102.127 68.294C99.6626 68.294 97.4926 67.804 95.6166 66.824C93.7406 65.844 92.2846 64.486 91.2486 62.75C90.2406 60.986 89.7366 58.998 89.7366 56.786C89.7366 54.602 90.2266 52.642 91.2066 50.906C92.2146 49.142 93.6006 47.77 95.3646 46.79C97.1286 45.81 99.1166 45.32 101.329 45.32C103.513 45.32 105.459 45.81 107.167 46.79C108.903 47.742 110.247 49.1 111.199 50.864C112.179 52.6 112.669 54.616 112.669 56.912ZM101.329 49.52C99.6486 49.52 98.2206 50.024 97.0446 51.032C95.8966 52.012 95.1966 53.328 94.9446 54.98H107.671C107.447 53.356 106.761 52.04 105.613 51.032C104.465 50.024 103.037 49.52 101.329 49.52ZM131.194 66.782C130.578 67.286 129.822 67.664 128.926 67.916C128.058 68.168 127.134 68.294 126.154 68.294C123.69 68.294 121.786 67.65 120.442 66.362C119.098 65.074 118.426 63.198 118.426 60.734V49.94H114.73V45.74H118.426V40.616H123.676V45.74H129.682V49.94H123.676V60.608C123.676 61.7 123.942 62.54 124.474 63.128C125.006 63.688 125.776 63.968 126.784 63.968C127.96 63.968 128.94 63.66 129.724 63.044L131.194 66.782ZM140.594 68.42C138.718 68.42 136.982 68.056 135.386 67.328C133.818 66.572 132.53 65.522 131.522 64.178L134.63 60.44C136.254 62.68 138.2 63.8 140.468 63.8C143.52 63.8 145.046 61.994 145.046 58.382V43.178H134.588V38.6H150.506V58.088C150.506 61.532 149.666 64.122 147.986 65.858C146.306 67.566 143.842 68.42 140.594 68.42ZM167.741 68.294C165.473 68.294 163.429 67.804 161.609 66.824C159.789 65.844 158.361 64.486 157.325 62.75C156.317 60.986 155.813 58.998 155.813 56.786C155.813 54.574 156.317 52.6 157.325 50.864C158.361 49.128 159.789 47.77 161.609 46.79C163.429 45.81 165.473 45.32 167.741 45.32C170.037 45.32 172.095 45.81 173.915 46.79C175.735 47.77 177.149 49.128 178.157 50.864C179.193 52.6 179.711 54.574 179.711 56.786C179.711 58.998 179.193 60.986 178.157 62.75C177.149 64.486 175.735 65.844 173.915 66.824C172.095 67.804 170.037 68.294 167.741 68.294ZM167.741 63.8C169.673 63.8 171.269 63.156 172.529 61.868C173.789 60.58 174.419 58.886 174.419 56.786C174.419 54.686 173.789 52.992 172.529 51.704C171.269 50.416 169.673 49.772 167.741 49.772C165.809 49.772 164.213 50.416 162.953 51.704C161.721 52.992 161.105 54.686 161.105 56.786C161.105 58.886 161.721 60.58 162.953 61.868C164.213 63.156 165.809 63.8 167.741 63.8ZM197.457 45.32C200.285 45.32 202.553 46.146 204.261 47.798C205.969 49.45 206.823 51.9 206.823 55.148V68H201.573V55.82C201.573 53.86 201.111 52.39 200.187 51.41C199.263 50.402 197.947 49.898 196.239 49.898C194.307 49.898 192.781 50.486 191.661 51.662C190.541 52.81 189.981 54.476 189.981 56.66V68H184.731V45.572H189.729V48.47C190.597 47.434 191.689 46.65 193.005 46.118C194.321 45.586 195.805 45.32 197.457 45.32ZM222.051 45.32C225.355 45.32 227.875 46.118 229.611 47.714C231.375 49.282 232.257 51.662 232.257 54.854V68H227.301V65.27C226.657 66.25 225.733 67.006 224.529 67.538C223.353 68.042 221.925 68.294 220.245 68.294C218.565 68.294 217.095 68.014 215.835 67.454C214.575 66.866 213.595 66.068 212.895 65.06C212.223 64.024 211.887 62.862 211.887 61.574C211.887 59.558 212.629 57.948 214.113 56.744C215.625 55.512 217.991 54.896 221.211 54.896H227.007V54.56C227.007 52.992 226.531 51.788 225.579 50.948C224.655 50.108 223.269 49.688 221.421 49.688C220.161 49.688 218.915 49.884 217.683 50.276C216.479 50.668 215.457 51.214 214.617 51.914L212.559 48.092C213.735 47.196 215.149 46.51 216.801 46.034C218.453 45.558 220.203 45.32 222.051 45.32ZM221.337 64.472C222.653 64.472 223.815 64.178 224.823 63.59C225.859 62.974 226.587 62.106 227.007 60.986V58.382H221.589C218.565 58.382 217.053 59.376 217.053 61.364C217.053 62.316 217.431 63.072 218.187 63.632C218.943 64.192 219.993 64.472 221.337 64.472ZM252.477 66.782C251.861 67.286 251.105 67.664 250.209 67.916C249.341 68.168 248.417 68.294 247.437 68.294C244.973 68.294 243.069 67.65 241.725 66.362C240.381 65.074 239.709 63.198 239.709 60.734V49.94H236.013V45.74H239.709V40.616H244.959V45.74H250.965V49.94H244.959V60.608C244.959 61.7 245.225 62.54 245.757 63.128C246.289 63.688 247.059 63.968 248.067 63.968C249.243 63.968 250.223 63.66 251.007 63.044L252.477 66.782ZM269.522 45.32C272.35 45.32 274.618 46.146 276.326 47.798C278.034 49.45 278.888 51.9 278.888 55.148V68H273.638V55.82C273.638 53.86 273.176 52.39 272.252 51.41C271.328 50.402 270.012 49.898 268.304 49.898C266.372 49.898 264.846 50.486 263.726 51.662C262.606 52.81 262.046 54.476 262.046 56.66V68H256.796V36.836H262.046V48.176C262.914 47.252 263.978 46.552 265.238 46.076C266.526 45.572 267.954 45.32 269.522 45.32ZM294.116 45.32C297.42 45.32 299.94 46.118 301.676 47.714C303.44 49.282 304.322 51.662 304.322 54.854V68H299.366V65.27C298.722 66.25 297.798 67.006 296.594 67.538C295.418 68.042 293.99 68.294 292.31 68.294C290.63 68.294 289.16 68.014 287.9 67.454C286.64 66.866 285.66 66.068 284.96 65.06C284.288 64.024 283.952 62.862 283.952 61.574C283.952 59.558 284.694 57.948 286.178 56.744C287.69 55.512 290.056 54.896 293.276 54.896H299.072V54.56C299.072 52.992 298.596 51.788 297.644 50.948C296.72 50.108 295.334 49.688 293.486 49.688C292.226 49.688 290.98 49.884 289.748 50.276C288.544 50.668 287.522 51.214 286.682 51.914L284.624 48.092C285.8 47.196 287.214 46.51 288.866 46.034C290.518 45.558 292.268 45.32 294.116 45.32ZM293.402 64.472C294.718 64.472 295.88 64.178 296.888 63.59C297.924 62.974 298.652 62.106 299.072 60.986V58.382H293.654C290.63 58.382 289.118 59.376 289.118 61.364C289.118 62.316 289.496 63.072 290.252 63.632C291.008 64.192 292.058 64.472 293.402 64.472ZM323.785 45.32C326.613 45.32 328.881 46.146 330.589 47.798C332.297 49.45 333.151 51.9 333.151 55.148V68H327.901V55.82C327.901 53.86 327.439 52.39 326.515 51.41C325.591 50.402 324.275 49.898 322.567 49.898C320.635 49.898 319.109 50.486 317.989 51.662C316.869 52.81 316.309 54.476 316.309 56.66V68H311.059V45.572H316.057V48.47C316.925 47.434 318.017 46.65 319.333 46.118C320.649 45.586 322.133 45.32 323.785 45.32Z" fill="white"/>
</svg>
