<svg width="456" height="111" viewBox="0 0 456 111" fill="none" xmlns="http://www.w3.org/2000/svg">
<path d="M46.5 55C56.9 61.4 59.6667 71.6667 59.5 76H44.5M46.5 55C46.5 55 49.5 35 48 27C46.5 19 32 5 32 5C32 5 17 19.5 16 27C15 34.5 17.5 55 17.5 55M46.5 55L44.5 76M17.5 55C13 57.1667 4 64.4 4 76H19.5M17.5 55L19.5 76M19.5 76H44.5" stroke="white" stroke-width="7"/>
<path d="M32 110.5L40.6603 85H23.3397L32 110.5Z" fill="white"/>
<path d="M37 26.5C37 29.2614 34.7614 31.5 32 31.5C29.2386 31.5 27 29.2614 27 26.5C27 23.7386 29.2386 21.5 32 21.5C34.7614 21.5 37 23.7386 37 26.5Z" fill="white"/>
<path d="M93.45 31.09V76H84.15V31.09H93.45ZM119.086 56.71C119.086 55.97 118.986 55.25 118.786 54.55C118.606 53.85 118.296 53.23 117.856 52.69C117.436 52.13 116.876 51.68 116.176 51.34C115.476 51 114.626 50.83 113.626 50.83C111.866 50.83 110.486 51.34 109.486 52.36C108.486 53.36 107.826 54.81 107.506 56.71H119.086ZM107.386 62.11C107.686 64.71 108.476 66.6 109.756 67.78C111.036 68.94 112.686 69.52 114.706 69.52C115.786 69.52 116.716 69.39 117.496 69.13C118.276 68.87 118.966 68.58 119.566 68.26C120.186 67.94 120.746 67.65 121.246 67.39C121.766 67.13 122.306 67 122.866 67C123.606 67 124.166 67.27 124.546 67.81L127.246 71.14C126.286 72.24 125.246 73.14 124.126 73.84C123.026 74.52 121.886 75.06 120.706 75.46C119.546 75.84 118.376 76.1 117.196 76.24C116.036 76.4 114.926 76.48 113.866 76.48C111.686 76.48 109.636 76.13 107.716 75.43C105.816 74.71 104.146 73.65 102.706 72.25C101.286 70.85 100.156 69.11 99.3159 67.03C98.4959 64.95 98.0859 62.53 98.0859 59.77C98.0859 57.69 98.4359 55.72 99.1359 53.86C99.8559 52 100.876 50.37 102.196 48.97C103.536 47.57 105.146 46.46 107.026 45.64C108.926 44.82 111.066 44.41 113.446 44.41C115.506 44.41 117.386 44.73 119.086 45.37C120.806 46.01 122.276 46.94 123.496 48.16C124.736 49.38 125.696 50.88 126.376 52.66C127.076 54.42 127.426 56.42 127.426 58.66C127.426 59.36 127.396 59.93 127.336 60.37C127.276 60.81 127.166 61.16 127.006 61.42C126.846 61.68 126.626 61.86 126.346 61.96C126.086 62.06 125.746 62.11 125.326 62.11H107.386ZM142.8 76.48C141.32 76.48 140.01 76.27 138.87 75.85C137.75 75.41 136.8 74.8 136.02 74.02C135.26 73.22 134.68 72.26 134.28 71.14C133.88 70.02 133.68 68.77 133.68 67.39V51.31H131.04C130.56 51.31 130.15 51.16 129.81 50.86C129.47 50.54 129.3 50.08 129.3 49.48V45.85L134.25 44.89L136.08 37.3C136.32 36.34 137 35.86 138.12 35.86H142.98V44.95H150.69V51.31H142.98V66.76C142.98 67.48 143.15 68.08 143.49 68.56C143.85 69.02 144.36 69.25 145.02 69.25C145.36 69.25 145.64 69.22 145.86 69.16C146.1 69.08 146.3 69 146.46 68.92C146.64 68.82 146.8 68.74 146.94 68.68C147.1 68.6 147.28 68.56 147.48 68.56C147.76 68.56 147.98 68.63 148.14 68.77C148.32 68.89 148.5 69.09 148.68 69.37L151.5 73.78C150.3 74.68 148.95 75.36 147.45 75.82C145.95 76.26 144.4 76.48 142.8 76.48ZM173.867 60.16C173.867 62.6 173.557 64.82 172.937 66.82C172.337 68.82 171.417 70.54 170.177 71.98C168.957 73.4 167.417 74.51 165.557 75.31C163.697 76.09 161.507 76.48 158.987 76.48C157.847 76.48 156.717 76.42 155.597 76.3C154.497 76.18 153.347 75.98 152.147 75.7L152.687 69.79C152.747 69.27 152.957 68.85 153.317 68.53C153.677 68.21 154.187 68.05 154.847 68.05C155.187 68.05 155.607 68.11 156.107 68.23C156.607 68.33 157.207 68.38 157.907 68.38C158.887 68.38 159.737 68.25 160.457 67.99C161.197 67.71 161.807 67.26 162.287 66.64C162.767 66 163.127 65.17 163.367 64.15C163.607 63.13 163.727 61.87 163.727 60.37V32.29H173.867V60.16ZM194.291 44.41C196.651 44.41 198.801 44.78 200.741 45.52C202.681 46.26 204.341 47.32 205.721 48.7C207.121 50.08 208.201 51.76 208.961 53.74C209.741 55.7 210.131 57.91 210.131 60.37C210.131 62.85 209.741 65.09 208.961 67.09C208.201 69.07 207.121 70.76 205.721 72.16C204.341 73.54 202.681 74.61 200.741 75.37C198.801 76.11 196.651 76.48 194.291 76.48C191.911 76.48 189.741 76.11 187.781 75.37C185.841 74.61 184.161 73.54 182.741 72.16C181.341 70.76 180.251 69.07 179.471 67.09C178.711 65.09 178.331 62.85 178.331 60.37C178.331 57.91 178.711 55.7 179.471 53.74C180.251 51.76 181.341 50.08 182.741 48.7C184.161 47.32 185.841 46.26 187.781 45.52C189.741 44.78 191.911 44.41 194.291 44.41ZM194.291 69.58C196.431 69.58 198.001 68.83 199.001 67.33C200.021 65.81 200.531 63.51 200.531 60.43C200.531 57.35 200.021 55.06 199.001 53.56C198.001 52.06 196.431 51.31 194.291 51.31C192.091 51.31 190.481 52.06 189.461 53.56C188.441 55.06 187.931 57.35 187.931 60.43C187.931 63.51 188.441 65.81 189.461 67.33C190.481 68.83 192.091 69.58 194.291 69.58ZM223.394 48.25C223.994 47.69 224.614 47.17 225.254 46.69C225.894 46.21 226.574 45.81 227.294 45.49C228.034 45.15 228.824 44.89 229.664 44.71C230.524 44.51 231.454 44.41 232.454 44.41C234.154 44.41 235.654 44.71 236.954 45.31C238.274 45.89 239.384 46.71 240.284 47.77C241.184 48.81 241.864 50.06 242.324 51.52C242.784 52.96 243.014 54.53 243.014 56.23V76H233.714V56.23C233.714 54.71 233.364 53.53 232.664 52.69C231.964 51.83 230.934 51.4 229.574 51.4C228.554 51.4 227.594 51.62 226.694 52.06C225.814 52.48 224.954 53.06 224.114 53.8V76H214.814V44.89H220.574C221.734 44.89 222.494 45.41 222.854 46.45L223.394 48.25ZM265.083 63.34C263.223 63.42 261.693 63.58 260.493 63.82C259.293 64.06 258.343 64.36 257.643 64.72C256.943 65.08 256.453 65.49 256.173 65.95C255.913 66.41 255.783 66.91 255.783 67.45C255.783 68.51 256.073 69.26 256.653 69.7C257.233 70.12 258.083 70.33 259.203 70.33C260.403 70.33 261.453 70.12 262.353 69.7C263.253 69.28 264.163 68.6 265.083 67.66V63.34ZM248.343 49.21C250.223 47.55 252.303 46.32 254.583 45.52C256.883 44.7 259.343 44.29 261.963 44.29C263.843 44.29 265.533 44.6 267.033 45.22C268.553 45.82 269.833 46.67 270.873 47.77C271.933 48.85 272.743 50.14 273.303 51.64C273.863 53.14 274.143 54.78 274.143 56.56V76H269.883C269.003 76 268.333 75.88 267.873 75.64C267.433 75.4 267.063 74.9 266.763 74.14L266.103 72.43C265.323 73.09 264.573 73.67 263.853 74.17C263.133 74.67 262.383 75.1 261.603 75.46C260.843 75.8 260.023 76.05 259.143 76.21C258.283 76.39 257.323 76.48 256.263 76.48C254.843 76.48 253.553 76.3 252.393 75.94C251.233 75.56 250.243 75.01 249.423 74.29C248.623 73.57 248.003 72.68 247.563 71.62C247.123 70.54 246.903 69.3 246.903 67.9C246.903 66.78 247.183 65.65 247.743 64.51C248.303 63.35 249.273 62.3 250.653 61.36C252.033 60.4 253.893 59.6 256.233 58.96C258.573 58.32 261.523 57.96 265.083 57.88V56.56C265.083 54.74 264.703 53.43 263.943 52.63C263.203 51.81 262.143 51.4 260.763 51.4C259.663 51.4 258.763 51.52 258.063 51.76C257.363 52 256.733 52.27 256.173 52.57C255.633 52.87 255.103 53.14 254.583 53.38C254.063 53.62 253.443 53.74 252.723 53.74C252.083 53.74 251.543 53.58 251.103 53.26C250.663 52.94 250.303 52.56 250.023 52.12L248.343 49.21ZM290.749 76.48C289.269 76.48 287.959 76.27 286.819 75.85C285.699 75.41 284.749 74.8 283.969 74.02C283.209 73.22 282.629 72.26 282.229 71.14C281.829 70.02 281.629 68.77 281.629 67.39V51.31H278.989C278.509 51.31 278.099 51.16 277.759 50.86C277.419 50.54 277.249 50.08 277.249 49.48V45.85L282.199 44.89L284.029 37.3C284.269 36.34 284.949 35.86 286.069 35.86H290.929V44.95H298.639V51.31H290.929V66.76C290.929 67.48 291.099 68.08 291.439 68.56C291.799 69.02 292.309 69.25 292.969 69.25C293.309 69.25 293.589 69.22 293.809 69.16C294.049 69.08 294.249 69 294.409 68.92C294.589 68.82 294.749 68.74 294.889 68.68C295.049 68.6 295.229 68.56 295.429 68.56C295.709 68.56 295.929 68.63 296.089 68.77C296.269 68.89 296.449 69.09 296.629 69.37L299.449 73.78C298.249 74.68 296.899 75.36 295.399 75.82C293.899 76.26 292.349 76.48 290.749 76.48ZM311.946 47.62C313.066 46.66 314.276 45.89 315.576 45.31C316.896 44.71 318.466 44.41 320.286 44.41C321.986 44.41 323.486 44.71 324.786 45.31C326.106 45.89 327.216 46.71 328.116 47.77C329.016 48.81 329.696 50.06 330.156 51.52C330.616 52.96 330.846 54.53 330.846 56.23V76H321.546V56.23C321.546 54.71 321.196 53.53 320.496 52.69C319.796 51.83 318.766 51.4 317.406 51.4C316.386 51.4 315.426 51.62 314.526 52.06C313.646 52.48 312.786 53.06 311.946 53.8V76H302.646V31.09H311.946V47.62ZM352.915 63.34C351.055 63.42 349.525 63.58 348.325 63.82C347.125 64.06 346.175 64.36 345.475 64.72C344.775 65.08 344.285 65.49 344.005 65.95C343.745 66.41 343.615 66.91 343.615 67.45C343.615 68.51 343.905 69.26 344.485 69.7C345.065 70.12 345.915 70.33 347.035 70.33C348.235 70.33 349.285 70.12 350.185 69.7C351.085 69.28 351.995 68.6 352.915 67.66V63.34ZM336.175 49.21C338.055 47.55 340.135 46.32 342.415 45.52C344.715 44.7 347.175 44.29 349.795 44.29C351.675 44.29 353.365 44.6 354.865 45.22C356.385 45.82 357.665 46.67 358.705 47.77C359.765 48.85 360.575 50.14 361.135 51.64C361.695 53.14 361.975 54.78 361.975 56.56V76H357.715C356.835 76 356.165 75.88 355.705 75.64C355.265 75.4 354.895 74.9 354.595 74.14L353.935 72.43C353.155 73.09 352.405 73.67 351.685 74.17C350.965 74.67 350.215 75.1 349.435 75.46C348.675 75.8 347.855 76.05 346.975 76.21C346.115 76.39 345.155 76.48 344.095 76.48C342.675 76.48 341.385 76.3 340.225 75.94C339.065 75.56 338.075 75.01 337.255 74.29C336.455 73.57 335.835 72.68 335.395 71.62C334.955 70.54 334.735 69.3 334.735 67.9C334.735 66.78 335.015 65.65 335.575 64.51C336.135 63.35 337.105 62.3 338.485 61.36C339.865 60.4 341.725 59.6 344.065 58.96C346.405 58.32 349.355 57.96 352.915 57.88V56.56C352.915 54.74 352.535 53.43 351.775 52.63C351.035 51.81 349.975 51.4 348.595 51.4C347.495 51.4 346.595 51.52 345.895 51.76C345.195 52 344.565 52.27 344.005 52.57C343.465 52.87 342.935 53.14 342.415 53.38C341.895 53.62 341.275 53.74 340.555 53.74C339.915 53.74 339.375 53.58 338.935 53.26C338.495 52.94 338.135 52.56 337.855 52.12L336.175 49.21ZM376.5 48.25C377.1 47.69 377.72 47.17 378.36 46.69C379 46.21 379.68 45.81 380.4 45.49C381.14 45.15 381.93 44.89 382.77 44.71C383.63 44.51 384.56 44.41 385.56 44.41C387.26 44.41 388.76 44.71 390.06 45.31C391.38 45.89 392.49 46.71 393.39 47.77C394.29 48.81 394.97 50.06 395.43 51.52C395.89 52.96 396.12 54.53 396.12 56.23V76H386.82V56.23C386.82 54.71 386.47 53.53 385.77 52.69C385.07 51.83 384.04 51.4 382.68 51.4C381.66 51.4 380.7 51.62 379.8 52.06C378.92 52.48 378.06 53.06 377.22 53.8V76H367.92V44.89H373.68C374.84 44.89 375.6 45.41 375.96 46.45L376.5 48.25Z" fill="white"/>
</svg>
